<svg xmlns="http://www.w3.org/2000/svg" xmlns:xlink="http://www.w3.org/1999/xlink" version="1.1" class="marks" width="353" height="371" viewBox="0 0 353 371"><rect width="353" height="371" fill="white"/><g fill="none" stroke-miterlimit="10" transform="translate(47,34)"><g class="mark-group role-frame root" role="graphics-object" aria-roledescription="group mark container"><g transform="translate(0,0)"><path class="background" aria-hidden="true" d="M0.5,0.5h300v300h-300Z" stroke="#ddd"/><g><g class="mark-group role-axis" aria-hidden="true"><g transform="translate(0.5,300.5)"><path class="background" aria-hidden="true" d="M0,0h0v0h0Z" pointer-events="none"/><g><g class="mark-rule role-axis-grid" pointer-events="none"><line transform="translate(0,-300)" x2="0" y2="300" stroke="#ddd" stroke-width="1" opacity="1"/><line transform="translate(25,-300)" x2="0" y2="300" stroke="#ddd" stroke-width="1" opacity="1"/><line transform="translate(50,-300)" x2="0" y2="300" stroke="#ddd" stroke-width="1" opacity="1"/><line transform="translate(75,-300)" x2="0" y2="300" stroke="#ddd" stroke-width="1" opacity="1"/><line transform="translate(100,-300)" x2="0" y2="300" stroke="#ddd" stroke-width="1" opacity="1"/><line transform="translate(125,-300)" x2="0" y2="300" stroke="#ddd" stroke-width="1" opacity="1"/><line transform="translate(150,-300)" x2="0" y2="300" stroke="#ddd" stroke-width="1" opacity="1"/><line transform="translate(175,-300)" x2="0" y2="300" stroke="#ddd" stroke-width="1" opacity="1"/><line transform="translate(200,-300)" x2="0" y2="300" stroke="#ddd" stroke-width="1" opacity="1"/><line transform="translate(225,-300)" x2="0" y2="300" stroke="#ddd" stroke-width="1" opacity="1"/><line transform="translate(250,-300)" x2="0" y2="300" stroke="#ddd" stroke-width="1" opacity="1"/><line transform="translate(275,-300)" x2="0" y2="300" stroke="#ddd" stroke-width="1" opacity="1"/><line transform="translate(300,-300)" x2="0" y2="300" stroke="#ddd" stroke-width="1" opacity="1"/></g></g><path class="foreground" aria-hidden="true" d="" pointer-events="none" display="none"/></g></g><g class="mark-group role-axis" aria-hidden="true"><g transform="translate(0.5,0.5)"><path class="background" aria-hidden="true" d="M0,0h0v0h0Z" pointer-events="none"/><g><g class="mark-rule role-axis-grid" pointer-events="none"><line transform="translate(0,300)" x2="300" y2="0" stroke="#ddd" stroke-width="1" opacity="1"/><line transform="translate(0,267)" x2="300" y2="0" stroke="#ddd" stroke-width="1" opacity="1"/><line transform="translate(0,233)" x2="300" y2="0" stroke="#ddd" stroke-width="1" opacity="1"/><line transform="translate(0,200)" x2="300" y2="0" stroke="#ddd" stroke-width="1" opacity="1"/><line transform="translate(0,167)" x2="300" y2="0" stroke="#ddd" stroke-width="1" opacity="1"/><line transform="translate(0,133)" x2="300" y2="0" stroke="#ddd" stroke-width="1" opacity="1"/><line transform="translate(0,100)" x2="300" y2="0" stroke="#ddd" stroke-width="1" opacity="1"/><line transform="translate(0,67)" x2="300" y2="0" stroke="#ddd" stroke-width="1" opacity="1"/><line transform="translate(0,33)" x2="300" y2="0" stroke="#ddd" stroke-width="1" opacity="1"/><line transform="translate(0,0)" x2="300" y2="0" stroke="#ddd" stroke-width="1" opacity="1"/></g></g><path class="foreground" aria-hidden="true" d="" pointer-events="none" display="none"/></g></g><g class="mark-group role-axis" role="graphics-symbol" aria-roledescription="axis" aria-label="X-axis titled 'lag' for a linear scale with values from −2 to 22"><g transform="translate(0.5,300.5)"><path class="background" aria-hidden="true" d="M0,0h0v0h0Z" pointer-events="none"/><g><g class="mark-rule role-axis-tick" pointer-events="none"><line transform="translate(0,0)" x2="0" y2="5" stroke="#888" stroke-width="1" opacity="1"/><line transform="translate(25,0)" x2="0" y2="5" stroke="#888" stroke-width="1" opacity="1"/><line transform="translate(50,0)" x2="0" y2="5" stroke="#888" stroke-width="1" opacity="1"/><line transform="translate(75,0)" x2="0" y2="5" stroke="#888" stroke-width="1" opacity="1"/><line transform="translate(100,0)" x2="0" y2="5" stroke="#888" stroke-width="1" opacity="1"/><line transform="translate(125,0)" x2="0" y2="5" stroke="#888" stroke-width="1" opacity="1"/><line transform="translate(150,0)" x2="0" y2="5" stroke="#888" stroke-width="1" opacity="1"/><line transform="translate(175,0)" x2="0" y2="5" stroke="#888" stroke-width="1" opacity="1"/><line transform="translate(200,0)" x2="0" y2="5" stroke="#888" stroke-width="1" opacity="1"/><line transform="translate(225,0)" x2="0" y2="5" stroke="#888" stroke-width="1" opacity="1"/><line transform="translate(250,0)" x2="0" y2="5" stroke="#888" stroke-width="1" opacity="1"/><line transform="translate(275,0)" x2="0" y2="5" stroke="#888" stroke-width="1" opacity="1"/><line transform="translate(300,0)" x2="0" y2="5" stroke="#888" stroke-width="1" opacity="1"/></g><g class="mark-text role-axis-label" pointer-events="none"><text text-anchor="start" transform="translate(0,15)" font-family="sans-serif" font-size="10px" fill="#000" opacity="1">−2</text><text text-anchor="middle" transform="translate(25,15)" font-family="sans-serif" font-size="10px" fill="#000" opacity="1">0</text><text text-anchor="middle" transform="translate(50,15)" font-family="sans-serif" font-size="10px" fill="#000" opacity="1">2</text><text text-anchor="middle" transform="translate(75,15)" font-family="sans-serif" font-size="10px" fill="#000" opacity="1">4</text><text text-anchor="middle" transform="translate(100,15)" font-family="sans-serif" font-size="10px" fill="#000" opacity="1">6</text><text text-anchor="middle" transform="translate(125,15)" font-family="sans-serif" font-size="10px" fill="#000" opacity="1">8</text><text text-anchor="middle" transform="translate(150,15)" font-family="sans-serif" font-size="10px" fill="#000" opacity="1">10</text><text text-anchor="middle" transform="translate(175,15)" font-family="sans-serif" font-size="10px" fill="#000" opacity="1">12</text><text text-anchor="middle" transform="translate(200,15)" font-family="sans-serif" font-size="10px" fill="#000" opacity="1">14</text><text text-anchor="middle" transform="translate(225,15)" font-family="sans-serif" font-size="10px" fill="#000" opacity="1">16</text><text text-anchor="middle" transform="translate(250,15)" font-family="sans-serif" font-size="10px" fill="#000" opacity="1">18</text><text text-anchor="middle" transform="translate(275,15)" font-family="sans-serif" font-size="10px" fill="#000" opacity="1">20</text><text text-anchor="end" transform="translate(300,15)" font-family="sans-serif" font-size="10px" fill="#000" opacity="1">22</text></g><g class="mark-rule role-axis-domain" pointer-events="none"><line transform="translate(0,0)" x2="300" y2="0" stroke="#888" stroke-width="1" opacity="1"/></g><g class="mark-text role-axis-title" pointer-events="none"><text text-anchor="middle" transform="translate(150,30)" font-family="sans-serif" font-size="11px" font-weight="bold" fill="#000" opacity="1">lag</text></g></g><path class="foreground" aria-hidden="true" d="" pointer-events="none" display="none"/></g></g><g class="mark-group role-axis" role="graphics-symbol" aria-roledescription="axis" aria-label="Y-axis titled 'auto_correlation, pos_white_noise_border, neg_white_noise_border' for a linear scale with values from −0.8 to 1.0"><g transform="translate(0.5,0.5)"><path class="background" aria-hidden="true" d="M0,0h0v0h0Z" pointer-events="none"/><g><g class="mark-rule role-axis-tick" pointer-events="none"><line transform="translate(0,300)" x2="-5" y2="0" stroke="#888" stroke-width="1" opacity="1"/><line transform="translate(0,267)" x2="-5" y2="0" stroke="#888" stroke-width="1" opacity="1"/><line transform="translate(0,233)" x2="-5" y2="0" stroke="#888" stroke-width="1" opacity="1"/><line transform="translate(0,200)" x2="-5" y2="0" stroke="#888" stroke-width="1" opacity="1"/><line transform="translate(0,167)" x2="-5" y2="0" stroke="#888" stroke-width="1" opacity="1"/><line transform="translate(0,133)" x2="-5" y2="0" stroke="#888" stroke-width="1" opacity="1"/><line transform="translate(0,100)" x2="-5" y2="0" stroke="#888" stroke-width="1" opacity="1"/><line transform="translate(0,67)" x2="-5" y2="0" stroke="#888" stroke-width="1" opacity="1"/><line transform="translate(0,33)" x2="-5" y2="0" stroke="#888" stroke-width="1" opacity="1"/><line transform="translate(0,0)" x2="-5" y2="0" stroke="#888" stroke-width="1" opacity="1"/></g><g class="mark-text role-axis-label" pointer-events="none"><text text-anchor="end" transform="translate(-7,303)" font-family="sans-serif" font-size="10px" fill="#000" opacity="1">−0.8</text><text text-anchor="end" transform="translate(-7,269.66666666666663)" font-family="sans-serif" font-size="10px" fill="#000" opacity="1">−0.6</text><text text-anchor="end" transform="translate(-7,236.33333333333334)" font-family="sans-serif" font-size="10px" fill="#000" opacity="1">−0.4</text><text text-anchor="end" transform="translate(-7,203)" font-family="sans-serif" font-size="10px" fill="#000" opacity="1">−0.2</text><text text-anchor="end" transform="translate(-7,169.66666666666669)" font-family="sans-serif" font-size="10px" fill="#000" opacity="1">0.0</text><text text-anchor="end" transform="translate(-7,136.33333333333331)" font-family="sans-serif" font-size="10px" fill="#000" opacity="1">0.2</text><text text-anchor="end" transform="translate(-7,102.99999999999997)" font-family="sans-serif" font-size="10px" fill="#000" opacity="1">0.4</text><text text-anchor="end" transform="translate(-7,69.6666666666667)" font-family="sans-serif" font-size="10px" fill="#000" opacity="1">0.6</text><text text-anchor="end" transform="translate(-7,36.333333333333314)" font-family="sans-serif" font-size="10px" fill="#000" opacity="1">0.8</text><text text-anchor="end" transform="translate(-7,3)" font-family="sans-serif" font-size="10px" fill="#000" opacity="1">1.0</text></g><g class="mark-rule role-axis-domain" pointer-events="none"><line transform="translate(0,300)" x2="0" y2="-300" stroke="#888" stroke-width="1" opacity="1"/></g><g class="mark-text role-axis-title" pointer-events="none"><text text-anchor="middle" transform="translate(-30.7412109375,150) rotate(-90) translate(0,-2)" font-family="sans-serif" font-size="11px" font-weight="bold" fill="#000" opacity="1">auto_correlation, pos_white_noise_border, neg_white_noise_border</text></g></g><path class="foreground" aria-hidden="true" d="" pointer-events="none" display="none"/></g></g><g class="mark-rect role-mark layer_0_marks" role="graphics-object" aria-roledescription="rect mark container"><path aria-label="lag: 0; auto_correlation: 1" role="graphics-symbol" aria-roledescription="bar" d="M22.5,0h5v166.66666666666669h-5Z" fill="#4c78a8"/><path aria-label="lag: 1; auto_correlation: 0.411802501454" role="graphics-symbol" aria-roledescription="bar" d="M35,98.03291642425495h5v68.63375024241174h-5Z" fill="#4c78a8"/><path aria-label="lag: 2; auto_correlation: −0.0753721177409" role="graphics-symbol" aria-roledescription="bar" d="M47.5,166.66666666666669h5v12.56201962347933h-5Z" fill="#4c78a8"/><path aria-label="lag: 3; auto_correlation: 0.407730261343" role="graphics-symbol" aria-roledescription="bar" d="M60,98.71162310948674h5v67.95504355717995h-5Z" fill="#4c78a8"/><path aria-label="lag: 4; auto_correlation: 0.8608290023" role="graphics-symbol" aria-roledescription="bar" d="M72.5,23.19516628328888h5v143.47150038337782h-5Z" fill="#4c78a8"/><path aria-label="lag: 5; auto_correlation: 0.279484928867" role="graphics-symbol" aria-roledescription="bar" d="M85,120.08584518884774h5v46.580821477818944h-5Z" fill="#4c78a8"/><path aria-label="lag: 6; auto_correlation: −0.269105431686" role="graphics-symbol" aria-roledescription="bar" d="M97.5,166.66666666666669h5v44.85090528101554h-5Z" fill="#4c78a8"/><path aria-label="lag: 7; auto_correlation: 0.293973597805" role="graphics-symbol" aria-roledescription="bar" d="M110,117.67106703244097h5v48.99559963422571h-5Z" fill="#4c78a8"/><path aria-label="lag: 8; auto_correlation: 0.883566581613" role="graphics-symbol" aria-roledescription="bar" d="M122.5,19.40556973119002h5v147.26109693547667h-5Z" fill="#4c78a8"/><path aria-label="lag: 9; auto_correlation: 0.186274787513" role="graphics-symbol" aria-roledescription="bar" d="M135,135.62086874790933h5v31.04579791875736h-5Z" fill="#4c78a8"/><path aria-label="lag: 10; auto_correlation: −0.370209447861" role="graphics-symbol" aria-roledescription="bar" d="M147.5,166.66666666666669h5v61.70157464347173h-5Z" fill="#4c78a8"/><path aria-label="lag: 11; auto_correlation: 0.178985268226" role="graphics-symbol" aria-roledescription="bar" d="M160,136.83578862901308h5v29.830878037653605h-5Z" fill="#4c78a8"/><path aria-label="lag: 12; auto_correlation: 0.792109313465" role="graphics-symbol" aria-roledescription="bar" d="M172.5,34.648447755888036h5v132.01821891077864h-5Z" fill="#4c78a8"/><path aria-label="lag: 13; auto_correlation: 0.0430405762462" role="graphics-symbol" aria-roledescription="bar" d="M185,159.4932372923005h5v7.1734293743661794h-5Z" fill="#4c78a8"/><path aria-label="lag: 14; auto_correlation: −0.646592244493" role="graphics-symbol" aria-roledescription="bar" d="M197.5,166.66666666666669h5v107.76537408218371h-5Z" fill="#4c78a8"/><path aria-label="lag: 15; auto_correlation: 0.0166368088213" role="graphics-symbol" aria-roledescription="bar" d="M210,163.89386519644583h5v2.7728014702208554h-5Z" fill="#4c78a8"/><path aria-label="lag: 16; auto_correlation: 0.651856651849" role="graphics-symbol" aria-roledescription="bar" d="M222.5,58.023891358419434h5v108.64277530824725h-5Z" fill="#4c78a8"/><path aria-label="lag: 17; auto_correlation: −0.100442448048" role="graphics-symbol" aria-roledescription="bar" d="M235,166.66666666666669h5v16.740408007947764h-5Z" fill="#4c78a8"/><path aria-label="lag: 18; auto_correlation: −0.760716457345" role="graphics-symbol" aria-roledescription="bar" d="M247.5,166.66666666666669h5v126.78607622413068h-5Z" fill="#4c78a8"/><path aria-label="lag: 19; auto_correlation: −0.0450877978834" role="graphics-symbol" aria-roledescription="bar" d="M260,166.66666666666669h5v7.514632980565722h-5Z" fill="#4c78a8"/><path aria-label="lag: 20; auto_correlation: 0.81611255172" role="graphics-symbol" aria-roledescription="bar" d="M272.5,30.64790804669094h5v136.01875861997576h-5Z" fill="#4c78a8"/></g><g class="mark-line role-mark layer_1_marks" role="graphics-object" aria-roledescription="line mark container"><path aria-label="lag: −1; pos_white_noise_border: 0.346482322781" role="graphics-symbol" aria-roledescription="line mark" d="M12.5,108.92L25,108.92L37.5,108.92L50,108.92L62.5,108.92L75,108.92L87.5,108.92L100,108.92L112.5,108.92L125,108.92L137.5,108.92L150,108.92L162.5,108.92L175,108.92L187.5,108.92L200,108.92L212.5,108.92L225,108.92L237.5,108.92L250,108.92L262.5,108.92L275,108.92L287.5,108.92" stroke="#4c78a8" stroke-width="2" stroke-dasharray="1,1"/></g><g class="mark-line role-mark layer_2_marks" role="graphics-object" aria-roledescription="line mark container"><path aria-label="lag: −1; neg_white_noise_border: −0.346482322781" role="graphics-symbol" aria-roledescription="line mark" d="M12.5,224.414L25,224.414L37.5,224.414L50,224.414L62.5,224.414L75,224.414L87.5,224.414L100,224.414L112.5,224.414L125,224.414L137.5,224.414L150,224.414L162.5,224.414L175,224.414L187.5,224.414L200,224.414L212.5,224.414L225,224.414L237.5,224.414L250,224.414L262.5,224.414L275,224.414L287.5,224.414" stroke="#4c78a8" stroke-width="2" stroke-dasharray="1,1"/></g></g><path class="foreground" aria-hidden="true" d="" display="none"/></g></g></g></svg>