<svg xmlns="http://www.w3.org/2000/svg" xmlns:xlink="http://www.w3.org/1999/xlink" version="1.1" class="marks" width="678" height="387" viewBox="0 0 678 387"><rect width="678" height="387" fill="white"/><g fill="none" stroke-miterlimit="10" transform="translate(33,10)"><g class="mark-group role-frame root" role="graphics-object" aria-roledescription="group mark container"><g transform="translate(0,0)"><path class="background" aria-hidden="true" d="M0.5,0.5h640v300h-640Z" stroke="#ddd"/><g><g class="mark-group role-axis" aria-hidden="true"><g transform="translate(0.5,0.5)"><path class="background" aria-hidden="true" d="M0,0h0v0h0Z" pointer-events="none"/><g><g class="mark-rule role-axis-grid" pointer-events="none"><line transform="translate(0,300)" x2="640" y2="0" stroke="#ddd" stroke-width="1" opacity="1"/><line transform="translate(0,267)" x2="640" y2="0" stroke="#ddd" stroke-width="1" opacity="1"/><line transform="translate(0,233)" x2="640" y2="0" stroke="#ddd" stroke-width="1" opacity="1"/><line transform="translate(0,200)" x2="640" y2="0" stroke="#ddd" stroke-width="1" opacity="1"/><line transform="translate(0,167)" x2="640" y2="0" stroke="#ddd" stroke-width="1" opacity="1"/><line transform="translate(0,133)" x2="640" y2="0" stroke="#ddd" stroke-width="1" opacity="1"/><line transform="translate(0,100)" x2="640" y2="0" stroke="#ddd" stroke-width="1" opacity="1"/><line transform="translate(0,67)" x2="640" y2="0" stroke="#ddd" stroke-width="1" opacity="1"/><line transform="translate(0,33)" x2="640" y2="0" stroke="#ddd" stroke-width="1" opacity="1"/><line transform="translate(0,0)" x2="640" y2="0" stroke="#ddd" stroke-width="1" opacity="1"/></g></g><path class="foreground" aria-hidden="true" d="" pointer-events="none" display="none"/></g></g><g class="mark-group role-axis" role="graphics-symbol" aria-roledescription="axis" aria-label="X-axis titled 'period' for a discrete scale with 32 values: 2013KW01, 2013KW02, 2013KW03, 2013KW04, 2014KW01, ending with 2020KW04"><g transform="translate(0.5,300.5)"><path class="background" aria-hidden="true" d="M0,0h0v0h0Z" pointer-events="none"/><g><g class="mark-rule role-axis-tick" pointer-events="none"><line transform="translate(10,0)" x2="0" y2="5" stroke="#888" stroke-width="1" opacity="1"/><line transform="translate(30,0)" x2="0" y2="5" stroke="#888" stroke-width="1" opacity="1"/><line transform="translate(50,0)" x2="0" y2="5" stroke="#888" stroke-width="1" opacity="1"/><line transform="translate(70,0)" x2="0" y2="5" stroke="#888" stroke-width="1" opacity="1"/><line transform="translate(90,0)" x2="0" y2="5" stroke="#888" stroke-width="1" opacity="1"/><line transform="translate(110,0)" x2="0" y2="5" stroke="#888" stroke-width="1" opacity="1"/><line transform="translate(130,0)" x2="0" y2="5" stroke="#888" stroke-width="1" opacity="1"/><line transform="translate(150,0)" x2="0" y2="5" stroke="#888" stroke-width="1" opacity="1"/><line transform="translate(170,0)" x2="0" y2="5" stroke="#888" stroke-width="1" opacity="1"/><line transform="translate(190,0)" x2="0" y2="5" stroke="#888" stroke-width="1" opacity="1"/><line transform="translate(210,0)" x2="0" y2="5" stroke="#888" stroke-width="1" opacity="1"/><line transform="translate(230,0)" x2="0" y2="5" stroke="#888" stroke-width="1" opacity="1"/><line transform="translate(250,0)" x2="0" y2="5" stroke="#888" stroke-width="1" opacity="1"/><line transform="translate(270,0)" x2="0" y2="5" stroke="#888" stroke-width="1" opacity="1"/><line transform="translate(290,0)" x2="0" y2="5" stroke="#888" stroke-width="1" opacity="1"/><line transform="translate(310,0)" x2="0" y2="5" stroke="#888" stroke-width="1" opacity="1"/><line transform="translate(330,0)" x2="0" y2="5" stroke="#888" stroke-width="1" opacity="1"/><line transform="translate(350,0)" x2="0" y2="5" stroke="#888" stroke-width="1" opacity="1"/><line transform="translate(370,0)" x2="0" y2="5" stroke="#888" stroke-width="1" opacity="1"/><line transform="translate(390,0)" x2="0" y2="5" stroke="#888" stroke-width="1" opacity="1"/><line transform="translate(410,0)" x2="0" y2="5" stroke="#888" stroke-width="1" opacity="1"/><line transform="translate(430,0)" x2="0" y2="5" stroke="#888" stroke-width="1" opacity="1"/><line transform="translate(450,0)" x2="0" y2="5" stroke="#888" stroke-width="1" opacity="1"/><line transform="translate(470,0)" x2="0" y2="5" stroke="#888" stroke-width="1" opacity="1"/><line transform="translate(490,0)" x2="0" y2="5" stroke="#888" stroke-width="1" opacity="1"/><line transform="translate(510,0)" x2="0" y2="5" stroke="#888" stroke-width="1" opacity="1"/><line transform="translate(530,0)" x2="0" y2="5" stroke="#888" stroke-width="1" opacity="1"/><line transform="translate(550,0)" x2="0" y2="5" stroke="#888" stroke-width="1" opacity="1"/><line transform="translate(570,0)" x2="0" y2="5" stroke="#888" stroke-width="1" opacity="1"/><line transform="translate(590,0)" x2="0" y2="5" stroke="#888" stroke-width="1" opacity="1"/><line transform="translate(610,0)" x2="0" y2="5" stroke="#888" stroke-width="1" opacity="1"/><line transform="translate(630,0)" x2="0" y2="5" stroke="#888" stroke-width="1" opacity="1"/></g><g class="mark-text role-axis-label" pointer-events="none"><text text-anchor="end" transform="translate(9.5,7) rotate(270) translate(0,3)" font-family="sans-serif" font-size="10px" fill="#000" opacity="1">2013KW01</text><text text-anchor="end" transform="translate(29.5,7) rotate(270) translate(0,3)" font-family="sans-serif" font-size="10px" fill="#000" opacity="1">2013KW02</text><text text-anchor="end" transform="translate(49.5,7) rotate(270) translate(0,3)" font-family="sans-serif" font-size="10px" fill="#000" opacity="1">2013KW03</text><text text-anchor="end" transform="translate(69.5,7) rotate(270) translate(0,3)" font-family="sans-serif" font-size="10px" fill="#000" opacity="1">2013KW04</text><text text-anchor="end" transform="translate(89.5,7) rotate(270) translate(0,3)" font-family="sans-serif" font-size="10px" fill="#000" opacity="1">2014KW01</text><text text-anchor="end" transform="translate(109.5,7) rotate(270) translate(0,3)" font-family="sans-serif" font-size="10px" fill="#000" opacity="1">2014KW02</text><text text-anchor="end" transform="translate(129.5,7) rotate(270) translate(0,3)" font-family="sans-serif" font-size="10px" fill="#000" opacity="1">2014KW03</text><text text-anchor="end" transform="translate(149.5,7) rotate(270) translate(0,3)" font-family="sans-serif" font-size="10px" fill="#000" opacity="1">2014KW04</text><text text-anchor="end" transform="translate(169.5,7) rotate(270) translate(0,3)" font-family="sans-serif" font-size="10px" fill="#000" opacity="1">2015KW01</text><text text-anchor="end" transform="translate(189.5,7) rotate(270) translate(0,3)" font-family="sans-serif" font-size="10px" fill="#000" opacity="1">2015KW02</text><text text-anchor="end" transform="translate(209.5,7) rotate(270) translate(0,3)" font-family="sans-serif" font-size="10px" fill="#000" opacity="1">2015KW03</text><text text-anchor="end" transform="translate(229.5,7) rotate(270) translate(0,3)" font-family="sans-serif" font-size="10px" fill="#000" opacity="1">2015KW04</text><text text-anchor="end" transform="translate(249.5,7) rotate(270) translate(0,3)" font-family="sans-serif" font-size="10px" fill="#000" opacity="1">2016KW01</text><text text-anchor="end" transform="translate(269.5,7) rotate(270) translate(0,3)" font-family="sans-serif" font-size="10px" fill="#000" opacity="1">2016KW02</text><text text-anchor="end" transform="translate(289.5,7) rotate(270) translate(0,3)" font-family="sans-serif" font-size="10px" fill="#000" opacity="1">2016KW03</text><text text-anchor="end" transform="translate(309.5,7) rotate(270) translate(0,3)" font-family="sans-serif" font-size="10px" fill="#000" opacity="1">2016KW04</text><text text-anchor="end" transform="translate(329.5,7) rotate(270) translate(0,3)" font-family="sans-serif" font-size="10px" fill="#000" opacity="1">2017KW01</text><text text-anchor="end" transform="translate(349.5,7) rotate(270) translate(0,3)" font-family="sans-serif" font-size="10px" fill="#000" opacity="1">2017KW02</text><text text-anchor="end" transform="translate(369.5,7) rotate(270) translate(0,3)" font-family="sans-serif" font-size="10px" fill="#000" opacity="1">2017KW03</text><text text-anchor="end" transform="translate(389.5,7) rotate(270) translate(0,3)" font-family="sans-serif" font-size="10px" fill="#000" opacity="1">2017KW04</text><text text-anchor="end" transform="translate(409.5,7) rotate(270) translate(0,3)" font-family="sans-serif" font-size="10px" fill="#000" opacity="1">2018KW01</text><text text-anchor="end" transform="translate(429.5,7) rotate(270) translate(0,3)" font-family="sans-serif" font-size="10px" fill="#000" opacity="1">2018KW02</text><text text-anchor="end" transform="translate(449.5,7) rotate(270) translate(0,3)" font-family="sans-serif" font-size="10px" fill="#000" opacity="1">2018KW03</text><text text-anchor="end" transform="translate(469.5,7) rotate(270) translate(0,3)" font-family="sans-serif" font-size="10px" fill="#000" opacity="1">2018KW04</text><text text-anchor="end" transform="translate(489.5,7) rotate(270) translate(0,3)" font-family="sans-serif" font-size="10px" fill="#000" opacity="1">2019KW01</text><text text-anchor="end" transform="translate(509.5,7) rotate(270) translate(0,3)" font-family="sans-serif" font-size="10px" fill="#000" opacity="1">2019KW02</text><text text-anchor="end" transform="translate(529.5,7) rotate(270) translate(0,3)" font-family="sans-serif" font-size="10px" fill="#000" opacity="1">2019KW03</text><text text-anchor="end" transform="translate(549.5,7) rotate(270) translate(0,3)" font-family="sans-serif" font-size="10px" fill="#000" opacity="1">2019KW04</text><text text-anchor="end" transform="translate(569.5,7) rotate(270) translate(0,3)" font-family="sans-serif" font-size="10px" fill="#000" opacity="1">2020KW01</text><text text-anchor="end" transform="translate(589.5,7) rotate(270) translate(0,3)" font-family="sans-serif" font-size="10px" fill="#000" opacity="1">2020KW02</text><text text-anchor="end" transform="translate(609.5,7) rotate(270) translate(0,3)" font-family="sans-serif" font-size="10px" fill="#000" opacity="1">2020KW03</text><text text-anchor="end" transform="translate(629.5,7) rotate(270) translate(0,3)" font-family="sans-serif" font-size="10px" fill="#000" opacity="1">2020KW04</text></g><g class="mark-rule role-axis-domain" pointer-events="none"><line transform="translate(0,0)" x2="640" y2="0" stroke="#888" stroke-width="1" opacity="1"/></g><g class="mark-text role-axis-title" pointer-events="none"><text text-anchor="middle" transform="translate(320,69.4775390625)" font-family="sans-serif" font-size="11px" font-weight="bold" fill="#000" opacity="1">period</text></g></g><path class="foreground" aria-hidden="true" d="" pointer-events="none" display="none"/></g></g><g class="mark-group role-axis" role="graphics-symbol" aria-roledescription="axis" aria-label="Y-axis titled 'sick_leave_percentage' for a linear scale with values from 0 to 9"><g transform="translate(0.5,0.5)"><path class="background" aria-hidden="true" d="M0,0h0v0h0Z" pointer-events="none"/><g><g class="mark-rule role-axis-tick" pointer-events="none"><line transform="translate(0,300)" x2="-5" y2="0" stroke="#888" stroke-width="1" opacity="1"/><line transform="translate(0,267)" x2="-5" y2="0" stroke="#888" stroke-width="1" opacity="1"/><line transform="translate(0,233)" x2="-5" y2="0" stroke="#888" stroke-width="1" opacity="1"/><line transform="translate(0,200)" x2="-5" y2="0" stroke="#888" stroke-width="1" opacity="1"/><line transform="translate(0,167)" x2="-5" y2="0" stroke="#888" stroke-width="1" opacity="1"/><line transform="translate(0,133)" x2="-5" y2="0" stroke="#888" stroke-width="1" opacity="1"/><line transform="translate(0,100)" x2="-5" y2="0" stroke="#888" stroke-width="1" opacity="1"/><line transform="translate(0,67)" x2="-5" y2="0" stroke="#888" stroke-width="1" opacity="1"/><line transform="translate(0,33)" x2="-5" y2="0" stroke="#888" stroke-width="1" opacity="1"/><line transform="translate(0,0)" x2="-5" y2="0" stroke="#888" stroke-width="1" opacity="1"/></g><g class="mark-text role-axis-label" pointer-events="none"><text text-anchor="end" transform="translate(-7,303)" font-family="sans-serif" font-size="10px" fill="#000" opacity="1">0</text><text text-anchor="end" transform="translate(-7,269.66666666666663)" font-family="sans-serif" font-size="10px" fill="#000" opacity="1">1</text><text text-anchor="end" transform="translate(-7,236.33333333333334)" font-family="sans-serif" font-size="10px" fill="#000" opacity="1">2</text><text text-anchor="end" transform="translate(-7,203.00000000000003)" font-family="sans-serif" font-size="10px" fill="#000" opacity="1">3</text><text text-anchor="end" transform="translate(-7,169.66666666666669)" font-family="sans-serif" font-size="10px" fill="#000" opacity="1">4</text><text text-anchor="end" transform="translate(-7,136.33333333333331)" font-family="sans-serif" font-size="10px" fill="#000" opacity="1">5</text><text text-anchor="end" transform="translate(-7,103.00000000000001)" font-family="sans-serif" font-size="10px" fill="#000" opacity="1">6</text><text text-anchor="end" transform="translate(-7,69.66666666666666)" font-family="sans-serif" font-size="10px" fill="#000" opacity="1">7</text><text text-anchor="end" transform="translate(-7,36.33333333333335)" font-family="sans-serif" font-size="10px" fill="#000" opacity="1">8</text><text text-anchor="end" transform="translate(-7,3)" font-family="sans-serif" font-size="10px" fill="#000" opacity="1">9</text></g><g class="mark-rule role-axis-domain" pointer-events="none"><line transform="translate(0,300)" x2="0" y2="-300" stroke="#888" stroke-width="1" opacity="1"/></g><g class="mark-text role-axis-title" pointer-events="none"><text text-anchor="middle" transform="translate(-16.5615234375,150) rotate(-90) translate(0,-2)" font-family="sans-serif" font-size="11px" font-weight="bold" fill="#000" opacity="1">sick_leave_percentage</text></g></g><path class="foreground" aria-hidden="true" d="" pointer-events="none" display="none"/></g></g><g class="mark-symbol role-mark layer_0_layer_0_marks" role="graphics-object" aria-roledescription="symbol mark container"><path aria-label="period: 2020KW02; sick_leave_percentage: 7.6" role="graphics-symbol" aria-roledescription="point" transform="translate(590,46.666666666666664)" d="M2.739,0A2.739,2.739,0,1,1,-2.739,0A2.739,2.739,0,1,1,2.739,0" stroke="#4c78a8" stroke-width="2" opacity="0.7"/><path aria-label="period: 2020KW03; sick_leave_percentage: 7" role="graphics-symbol" aria-roledescription="point" transform="translate(610,66.66666666666666)" d="M2.739,0A2.739,2.739,0,1,1,-2.739,0A2.739,2.739,0,1,1,2.739,0" stroke="#4c78a8" stroke-width="2" opacity="0.7"/><path aria-label="period: 2020KW04; sick_leave_percentage: 8.2" role="graphics-symbol" aria-roledescription="point" transform="translate(630,26.666666666666707)" d="M2.739,0A2.739,2.739,0,1,1,-2.739,0A2.739,2.739,0,1,1,2.739,0" stroke="#4c78a8" stroke-width="2" opacity="0.7"/></g><g class="mark-rule role-mark layer_0_layer_1_layer_0_marks" aria-hidden="true"><line transform="translate(10,240)" x2="0" y2="-60" stroke="black"/><line transform="translate(30,250)" x2="0" y2="-51.66666666666663" stroke="black"/><line transform="translate(50,246.66666666666666)" x2="0" y2="-43.333333333333314" stroke="black"/><line transform="translate(70,243.33333333333334)" x2="0" y2="-46.666666666666686" stroke="black"/><line transform="translate(90,243.33333333333334)" x2="0" y2="-50.00000000000003" stroke="black"/><line transform="translate(110,250)" x2="0" y2="-46.66666666666666" stroke="black"/><line transform="translate(130,246.66666666666666)" x2="0" y2="-41.66666666666666" stroke="black"/><line transform="translate(150,243.33333333333334)" x2="0" y2="-50.00000000000003" stroke="black"/><line transform="translate(170,243.33333333333334)" x2="0" y2="-60" stroke="black"/><line transform="translate(190,250)" x2="0" y2="-49.99999999999997" stroke="black"/><line transform="translate(210,246.66666666666666)" x2="0" y2="-40" stroke="black"/><line transform="translate(230,246.66666666666666)" x2="0" y2="-50" stroke="black"/><line transform="translate(250,243.33333333333334)" x2="0" y2="-56.666666666666686" stroke="black"/><line transform="translate(270,246.66666666666666)" x2="0" y2="-46.66666666666663" stroke="black"/><line transform="translate(290,246.66666666666666)" x2="0" y2="-40" stroke="black"/><line transform="translate(310,246.66666666666666)" x2="0" y2="-55" stroke="black"/><line transform="translate(330,243.33333333333334)" x2="0" y2="-60" stroke="black"/><line transform="translate(350,246.66666666666666)" x2="0" y2="-50" stroke="black"/><line transform="translate(370,253.33333333333334)" x2="0" y2="-51.66666666666666" stroke="black"/><line transform="translate(390,243.33333333333334)" x2="0" y2="-56.666666666666686" stroke="black"/><line transform="translate(410,240)" x2="0" y2="-73.33333333333331" stroke="black"/><line transform="translate(430,250)" x2="0" y2="-60" stroke="black"/><line transform="translate(450,253.33333333333334)" x2="0" y2="-58.33333333333337" stroke="black"/><line transform="translate(470,250)" x2="0" y2="-68.33333333333331" stroke="black"/><line transform="translate(490,240)" x2="0" y2="-73.33333333333331" stroke="black"/><line transform="translate(510,243.33333333333334)" x2="0" y2="-63.33333333333334" stroke="black"/><line transform="translate(530,246.66666666666666)" x2="0" y2="-61.66666666666666" stroke="black"/><line transform="translate(550,240)" x2="0" y2="-68.33333333333334" stroke="black"/><line transform="translate(570,220.00000000000003)" x2="0" y2="-65" stroke="black"/><line transform="translate(590,223.33333333333334)" x2="0" y2="-50.00000000000003" stroke="black"/><line transform="translate(610,213.33333333333331)" x2="0" y2="-43.333333333333314" stroke="black"/><line transform="translate(630,206.66666666666666)" x2="0" y2="-51.66666666666663" stroke="black"/></g><g class="mark-rule role-mark layer_0_layer_1_layer_1_marks" aria-hidden="true"><line transform="translate(10,119.99999999999997)" x2="0" y2="-36.66666666666663" stroke="black"/><line transform="translate(30,151.66666666666666)" x2="0" y2="-25.000000000000014" stroke="black"/><line transform="translate(50,165)" x2="0" y2="-31.666666666666686" stroke="black"/><line transform="translate(70,148.33333333333334)" x2="0" y2="-28.33333333333337" stroke="black"/><line transform="translate(90,141.66666666666666)" x2="0" y2="-31.666666666666643" stroke="black"/><line transform="translate(110,155.00000000000003)" x2="0" y2="-31.6666666666667" stroke="black"/><line transform="translate(130,161.66666666666666)" x2="0" y2="-31.666666666666657" stroke="black"/><line transform="translate(150,141.66666666666666)" x2="0" y2="-31.666666666666643" stroke="black"/><line transform="translate(170,123.33333333333333)" x2="0" y2="-39.999999999999986" stroke="black"/><line transform="translate(190,155.00000000000003)" x2="0" y2="-45.000000000000014" stroke="black"/><line transform="translate(210,163.33333333333334)" x2="0" y2="-36.6666666666667" stroke="black"/><line transform="translate(230,143.33333333333331)" x2="0" y2="-39.999999999999986" stroke="black"/><line transform="translate(250,121.66666666666667)" x2="0" y2="-45.000000000000014" stroke="black"/><line transform="translate(270,150)" x2="0" y2="-43.333333333333314" stroke="black"/><line transform="translate(290,161.66666666666666)" x2="0" y2="-41.666666666666686" stroke="black"/><line transform="translate(310,133.33333333333331)" x2="0" y2="-36.66666666666663" stroke="black"/><line transform="translate(330,124.99999999999999)" x2="0" y2="-48.33333333333333" stroke="black"/><line transform="translate(350,144.99999999999997)" x2="0" y2="-44.99999999999996" stroke="black"/><line transform="translate(370,150)" x2="0" y2="-43.333333333333314" stroke="black"/><line transform="translate(390,130)" x2="0" y2="-46.66666666666666" stroke="black"/><line transform="translate(410,103.33333333333333)" x2="0" y2="-60.000000000000014" stroke="black"/><line transform="translate(430,135)" x2="0" y2="-44.999999999999986" stroke="black"/><line transform="translate(450,143.33333333333331)" x2="0" y2="-43.3333333333333" stroke="black"/><line transform="translate(470,123.33333333333333)" x2="0" y2="-46.66666666666667" stroke="black"/><line transform="translate(490,113.33333333333333)" x2="0" y2="-53.33333333333334" stroke="black"/><line transform="translate(510,130)" x2="0" y2="-53.33333333333334" stroke="black"/><line transform="translate(530,140)" x2="0" y2="-46.66666666666667" stroke="black"/><line transform="translate(550,119.99999999999997)" x2="0" y2="-56.66666666666663" stroke="black"/><line transform="translate(570,95)" x2="0" y2="-55.00000000000001" stroke="black"/><line transform="translate(590,123.33333333333333)" x2="0" y2="-36.66666666666667" stroke="black"/><line transform="translate(610,131.66666666666666)" x2="0" y2="-34.99999999999997" stroke="black"/><line transform="translate(630,108.33333333333334)" x2="0" y2="-38.33333333333336" stroke="black"/></g><g class="mark-rect role-mark layer_1_layer_0_marks" role="graphics-object" aria-roledescription="rect mark container"><path aria-label="period: 2013KW01; sick_leave_percentage: 3.6; upper_box_sick_leave_percentage: 5.4; Max of sick_leave_percentage: 6.5; Q3 of sick_leave_percentage: 5.4; Median of sick_leave_percentage: 4.5; Q1 of sick_leave_percentage: 3.6; Min of sick_leave_percentage: 1.8" role="graphics-symbol" aria-roledescription="box" d="M3,119.99999999999997h14v60.00000000000003h-14Z" fill="#4c78a8"/><path aria-label="period: 2013KW02; sick_leave_percentage: 3.05; upper_box_sick_leave_percentage: 4.45; Max of sick_leave_percentage: 5.2; Q3 of sick_leave_percentage: 4.45; Median of sick_leave_percentage: 3.6; Q1 of sick_leave_percentage: 3.05; Min of sick_leave_percentage: 1.5" role="graphics-symbol" aria-roledescription="box" d="M23,151.66666666666666h14v46.666666666666714h-14Z" fill="#4c78a8"/><path aria-label="period: 2013KW03; sick_leave_percentage: 2.9; upper_box_sick_leave_percentage: 4.05; Max of sick_leave_percentage: 5; Q3 of sick_leave_percentage: 4.05; Median of sick_leave_percentage: 3.4; Q1 of sick_leave_percentage: 2.9; Min of sick_leave_percentage: 1.6" role="graphics-symbol" aria-roledescription="box" d="M43,165h14v38.33333333333334h-14Z" fill="#4c78a8"/><path aria-label="period: 2013KW04; sick_leave_percentage: 3.1; upper_box_sick_leave_percentage: 4.55; Max of sick_leave_percentage: 5.4; Q3 of sick_leave_percentage: 4.55; Median of sick_leave_percentage: 3.9; Q1 of sick_leave_percentage: 3.1; Min of sick_leave_percentage: 1.7" role="graphics-symbol" aria-roledescription="box" d="M63,148.33333333333334h14v48.333333333333314h-14Z" fill="#4c78a8"/><path aria-label="period: 2014KW01; sick_leave_percentage: 3.2; upper_box_sick_leave_percentage: 4.75; Max of sick_leave_percentage: 5.7; Q3 of sick_leave_percentage: 4.75; Median of sick_leave_percentage: 3.8; Q1 of sick_leave_percentage: 3.2; Min of sick_leave_percentage: 1.7" role="graphics-symbol" aria-roledescription="box" d="M83,141.66666666666666h14v51.66666666666666h-14Z" fill="#4c78a8"/><path aria-label="period: 2014KW02; sick_leave_percentage: 2.9; upper_box_sick_leave_percentage: 4.35; Max of sick_leave_percentage: 5.3; Q3 of sick_leave_percentage: 4.35; Median of sick_leave_percentage: 3.6; Q1 of sick_leave_percentage: 2.9; Min of sick_leave_percentage: 1.5" role="graphics-symbol" aria-roledescription="box" d="M103,155.00000000000003h14v48.333333333333314h-14Z" fill="#4c78a8"/><path aria-label="period: 2014KW03; sick_leave_percentage: 2.85; upper_box_sick_leave_percentage: 4.15; Max of sick_leave_percentage: 5.1; Q3 of sick_leave_percentage: 4.15; Median of sick_leave_percentage: 3.4; Q1 of sick_leave_percentage: 2.85; Min of sick_leave_percentage: 1.6" role="graphics-symbol" aria-roledescription="box" d="M123,161.66666666666666h14v43.33333333333334h-14Z" fill="#4c78a8"/><path aria-label="period: 2014KW04; sick_leave_percentage: 3.2; upper_box_sick_leave_percentage: 4.75; Max of sick_leave_percentage: 5.7; Q3 of sick_leave_percentage: 4.75; Median of sick_leave_percentage: 4; Q1 of sick_leave_percentage: 3.2; Min of sick_leave_percentage: 1.7" role="graphics-symbol" aria-roledescription="box" d="M143,141.66666666666666h14v51.66666666666666h-14Z" fill="#4c78a8"/><path aria-label="period: 2015KW01; sick_leave_percentage: 3.5; upper_box_sick_leave_percentage: 5.3; Max of sick_leave_percentage: 6.5; Q3 of sick_leave_percentage: 5.3; Median of sick_leave_percentage: 4.3; Q1 of sick_leave_percentage: 3.5; Min of sick_leave_percentage: 1.7" role="graphics-symbol" aria-roledescription="box" d="M163,123.33333333333333h14v60.000000000000014h-14Z" fill="#4c78a8"/><path aria-label="period: 2015KW02; sick_leave_percentage: 3; upper_box_sick_leave_percentage: 4.35; Max of sick_leave_percentage: 5.7; Q3 of sick_leave_percentage: 4.35; Median of sick_leave_percentage: 3.7; Q1 of sick_leave_percentage: 3; Min of sick_leave_percentage: 1.5" role="graphics-symbol" aria-roledescription="box" d="M183,155.00000000000003h14v45h-14Z" fill="#4c78a8"/><path aria-label="period: 2015KW03; sick_leave_percentage: 2.8; upper_box_sick_leave_percentage: 4.1; Max of sick_leave_percentage: 5.2; Q3 of sick_leave_percentage: 4.1; Median of sick_leave_percentage: 3.4; Q1 of sick_leave_percentage: 2.8; Min of sick_leave_percentage: 1.6" role="graphics-symbol" aria-roledescription="box" d="M203,163.33333333333334h14v43.333333333333314h-14Z" fill="#4c78a8"/><path aria-label="period: 2015KW04; sick_leave_percentage: 3.1; upper_box_sick_leave_percentage: 4.7; Max of sick_leave_percentage: 5.9; Q3 of sick_leave_percentage: 4.7; Median of sick_leave_percentage: 3.8; Q1 of sick_leave_percentage: 3.1; Min of sick_leave_percentage: 1.6" role="graphics-symbol" aria-roledescription="box" d="M223,143.33333333333331h14v53.33333333333334h-14Z" fill="#4c78a8"/><path aria-label="period: 2016KW01; sick_leave_percentage: 3.4; upper_box_sick_leave_percentage: 5.35; Max of sick_leave_percentage: 6.7; Q3 of sick_leave_percentage: 5.35; Median of sick_leave_percentage: 4.3; Q1 of sick_leave_percentage: 3.4; Min of sick_leave_percentage: 1.7" role="graphics-symbol" aria-roledescription="box" d="M243,121.66666666666667h14v64.99999999999999h-14Z" fill="#4c78a8"/><path aria-label="period: 2016KW02; sick_leave_percentage: 3; upper_box_sick_leave_percentage: 4.5; Max of sick_leave_percentage: 5.8; Q3 of sick_leave_percentage: 4.5; Median of sick_leave_percentage: 3.8; Q1 of sick_leave_percentage: 3; Min of sick_leave_percentage: 1.6" role="graphics-symbol" aria-roledescription="box" d="M263,150h14v50.00000000000003h-14Z" fill="#4c78a8"/><path aria-label="period: 2016KW03; sick_leave_percentage: 2.8; upper_box_sick_leave_percentage: 4.15; Max of sick_leave_percentage: 5.4; Q3 of sick_leave_percentage: 4.15; Median of sick_leave_percentage: 3.5; Q1 of sick_leave_percentage: 2.8; Min of sick_leave_percentage: 1.6" role="graphics-symbol" aria-roledescription="box" d="M283,161.66666666666666h14v45h-14Z" fill="#4c78a8"/><path aria-label="period: 2016KW04; sick_leave_percentage: 3.25; upper_box_sick_leave_percentage: 5; Max of sick_leave_percentage: 6.1; Q3 of sick_leave_percentage: 5; Median of sick_leave_percentage: 4.1; Q1 of sick_leave_percentage: 3.25; Min of sick_leave_percentage: 1.6" role="graphics-symbol" aria-roledescription="box" d="M303,133.33333333333331h14v58.33333333333334h-14Z" fill="#4c78a8"/><path aria-label="period: 2017KW01; sick_leave_percentage: 3.5; upper_box_sick_leave_percentage: 5.25; Max of sick_leave_percentage: 6.7; Q3 of sick_leave_percentage: 5.25; Median of sick_leave_percentage: 4.5; Q1 of sick_leave_percentage: 3.5; Min of sick_leave_percentage: 1.7" role="graphics-symbol" aria-roledescription="box" d="M323,124.99999999999999h14v58.33333333333336h-14Z" fill="#4c78a8"/><path aria-label="period: 2017KW02; sick_leave_percentage: 3.1; upper_box_sick_leave_percentage: 4.65; Max of sick_leave_percentage: 6; Q3 of sick_leave_percentage: 4.65; Median of sick_leave_percentage: 3.8; Q1 of sick_leave_percentage: 3.1; Min of sick_leave_percentage: 1.6" role="graphics-symbol" aria-roledescription="box" d="M343,144.99999999999997h14v51.666666666666686h-14Z" fill="#4c78a8"/><path aria-label="period: 2017KW03; sick_leave_percentage: 2.95; upper_box_sick_leave_percentage: 4.5; Max of sick_leave_percentage: 5.8; Q3 of sick_leave_percentage: 4.5; Median of sick_leave_percentage: 3.7; Q1 of sick_leave_percentage: 2.95; Min of sick_leave_percentage: 1.4" role="graphics-symbol" aria-roledescription="box" d="M363,150h14v51.666666666666686h-14Z" fill="#4c78a8"/><path aria-label="period: 2017KW04; sick_leave_percentage: 3.4; upper_box_sick_leave_percentage: 5.1; Max of sick_leave_percentage: 6.5; Q3 of sick_leave_percentage: 5.1; Median of sick_leave_percentage: 4.3; Q1 of sick_leave_percentage: 3.4; Min of sick_leave_percentage: 1.7" role="graphics-symbol" aria-roledescription="box" d="M383,130h14v56.66666666666666h-14Z" fill="#4c78a8"/><path aria-label="period: 2018KW01; sick_leave_percentage: 4; upper_box_sick_leave_percentage: 5.9; Max of sick_leave_percentage: 7.7; Q3 of sick_leave_percentage: 5.9; Median of sick_leave_percentage: 5; Q1 of sick_leave_percentage: 4; Min of sick_leave_percentage: 1.8" role="graphics-symbol" aria-roledescription="box" d="M403,103.33333333333333h14v63.33333333333336h-14Z" fill="#4c78a8"/><path aria-label="period: 2018KW02; sick_leave_percentage: 3.3; upper_box_sick_leave_percentage: 4.95; Max of sick_leave_percentage: 6.3; Q3 of sick_leave_percentage: 4.95; Median of sick_leave_percentage: 4.1; Q1 of sick_leave_percentage: 3.3; Min of sick_leave_percentage: 1.5" role="graphics-symbol" aria-roledescription="box" d="M423,135h14v55h-14Z" fill="#4c78a8"/><path aria-label="period: 2018KW03; sick_leave_percentage: 3.15; upper_box_sick_leave_percentage: 4.7; Max of sick_leave_percentage: 6; Q3 of sick_leave_percentage: 4.7; Median of sick_leave_percentage: 3.9; Q1 of sick_leave_percentage: 3.15; Min of sick_leave_percentage: 1.4" role="graphics-symbol" aria-roledescription="box" d="M443,143.33333333333331h14v51.66666666666666h-14Z" fill="#4c78a8"/><path aria-label="period: 2018KW04; sick_leave_percentage: 3.55; upper_box_sick_leave_percentage: 5.3; Max of sick_leave_percentage: 6.7; Q3 of sick_leave_percentage: 5.3; Median of sick_leave_percentage: 4.3; Q1 of sick_leave_percentage: 3.55; Min of sick_leave_percentage: 1.5" role="graphics-symbol" aria-roledescription="box" d="M463,123.33333333333333h14v58.33333333333336h-14Z" fill="#4c78a8"/><path aria-label="period: 2019KW01; sick_leave_percentage: 4; upper_box_sick_leave_percentage: 5.6; Max of sick_leave_percentage: 7.2; Q3 of sick_leave_percentage: 5.6; Median of sick_leave_percentage: 4.8; Q1 of sick_leave_percentage: 4; Min of sick_leave_percentage: 1.8" role="graphics-symbol" aria-roledescription="box" d="M483,113.33333333333333h14v53.33333333333336h-14Z" fill="#4c78a8"/><path aria-label="period: 2019KW02; sick_leave_percentage: 3.6; upper_box_sick_leave_percentage: 5.1; Max of sick_leave_percentage: 6.7; Q3 of sick_leave_percentage: 5.1; Median of sick_leave_percentage: 4.3; Q1 of sick_leave_percentage: 3.6; Min of sick_leave_percentage: 1.7" role="graphics-symbol" aria-roledescription="box" d="M503,130h14v50h-14Z" fill="#4c78a8"/><path aria-label="period: 2019KW03; sick_leave_percentage: 3.45; upper_box_sick_leave_percentage: 4.8; Max of sick_leave_percentage: 6.2; Q3 of sick_leave_percentage: 4.8; Median of sick_leave_percentage: 4; Q1 of sick_leave_percentage: 3.45; Min of sick_leave_percentage: 1.6" role="graphics-symbol" aria-roledescription="box" d="M523,140h14v45h-14Z" fill="#4c78a8"/><path aria-label="period: 2019KW04; sick_leave_percentage: 3.85; upper_box_sick_leave_percentage: 5.4; Max of sick_leave_percentage: 7.1; Q3 of sick_leave_percentage: 5.4; Median of sick_leave_percentage: 4.5; Q1 of sick_leave_percentage: 3.85; Min of sick_leave_percentage: 1.8" role="graphics-symbol" aria-roledescription="box" d="M543,119.99999999999997h14v51.666666666666686h-14Z" fill="#4c78a8"/><path aria-label="period: 2020KW01; sick_leave_percentage: 4.35; upper_box_sick_leave_percentage: 6.15; Max of sick_leave_percentage: 7.8; Q3 of sick_leave_percentage: 6.15; Median of sick_leave_percentage: 5.2; Q1 of sick_leave_percentage: 4.35; Min of sick_leave_percentage: 2.4" role="graphics-symbol" aria-roledescription="box" d="M563,95h14v60.00000000000003h-14Z" fill="#4c78a8"/><path aria-label="period: 2020KW02; sick_leave_percentage: 3.8; upper_box_sick_leave_percentage: 5.3; Max of sick_leave_percentage: 7.6; Q3 of sick_leave_percentage: 5.3; Median of sick_leave_percentage: 4.5; Q1 of sick_leave_percentage: 3.8; Min of sick_leave_percentage: 2.3" role="graphics-symbol" aria-roledescription="box" d="M583,123.33333333333333h14v49.999999999999986h-14Z" fill="#4c78a8"/><path aria-label="period: 2020KW03; sick_leave_percentage: 3.9; upper_box_sick_leave_percentage: 5.05; Max of sick_leave_percentage: 7; Q3 of sick_leave_percentage: 5.05; Median of sick_leave_percentage: 4.4; Q1 of sick_leave_percentage: 3.9; Min of sick_leave_percentage: 2.6" role="graphics-symbol" aria-roledescription="box" d="M603,131.66666666666666h14v38.33333333333334h-14Z" fill="#4c78a8"/><path aria-label="period: 2020KW04; sick_leave_percentage: 4.35; upper_box_sick_leave_percentage: 5.75; Max of sick_leave_percentage: 8.2; Q3 of sick_leave_percentage: 5.75; Median of sick_leave_percentage: 4.9; Q1 of sick_leave_percentage: 4.35; Min of sick_leave_percentage: 2.8" role="graphics-symbol" aria-roledescription="box" d="M623,108.33333333333334h14v46.666666666666686h-14Z" fill="#4c78a8"/></g><g class="mark-rect role-mark layer_1_layer_1_marks" aria-hidden="true"><path d="M3,149.5h14v1h-14Z" fill="white" opacity="0.7"/><path d="M23,179.5h14v1h-14Z" fill="white" opacity="0.7"/><path d="M43,186.16666666666666h14v1h-14Z" fill="white" opacity="0.7"/><path d="M63,169.5h14v1h-14Z" fill="white" opacity="0.7"/><path d="M83,172.83333333333331h14v1h-14Z" fill="white" opacity="0.7"/><path d="M103,179.5h14v1h-14Z" fill="white" opacity="0.7"/><path d="M123,186.16666666666666h14v1h-14Z" fill="white" opacity="0.7"/><path d="M143,166.16666666666669h14v1h-14Z" fill="white" opacity="0.7"/><path d="M163,156.16666666666669h14v1h-14Z" fill="white" opacity="0.7"/><path d="M183,176.16666666666663h14v1h-14Z" fill="white" opacity="0.7"/><path d="M203,186.16666666666666h14v1h-14Z" fill="white" opacity="0.7"/><path d="M223,172.83333333333331h14v1h-14Z" fill="white" opacity="0.7"/><path d="M243,156.16666666666669h14v1h-14Z" fill="white" opacity="0.7"/><path d="M263,172.83333333333331h14v1h-14Z" fill="white" opacity="0.7"/><path d="M283,182.83333333333334h14v1h-14Z" fill="white" opacity="0.7"/><path d="M303,162.83333333333334h14v1h-14Z" fill="white" opacity="0.7"/><path d="M323,149.5h14v1h-14Z" fill="white" opacity="0.7"/><path d="M343,172.83333333333331h14v1h-14Z" fill="white" opacity="0.7"/><path d="M363,176.16666666666663h14v1h-14Z" fill="white" opacity="0.7"/><path d="M383,156.16666666666669h14v1h-14Z" fill="white" opacity="0.7"/><path d="M403,132.83333333333331h14v1h-14Z" fill="white" opacity="0.7"/><path d="M423,162.83333333333334h14v1h-14Z" fill="white" opacity="0.7"/><path d="M443,169.5h14v1h-14Z" fill="white" opacity="0.7"/><path d="M463,156.16666666666669h14v1h-14Z" fill="white" opacity="0.7"/><path d="M483,139.5h14v1h-14Z" fill="white" opacity="0.7"/><path d="M503,156.16666666666669h14v1h-14Z" fill="white" opacity="0.7"/><path d="M523,166.16666666666669h14v1h-14Z" fill="white" opacity="0.7"/><path d="M543,149.5h14v1h-14Z" fill="white" opacity="0.7"/><path d="M563,126.16666666666664h14v1h-14Z" fill="white" opacity="0.7"/><path d="M583,149.5h14v1h-14Z" fill="white" opacity="0.7"/><path d="M603,152.83333333333331h14v1h-14Z" fill="white" opacity="0.7"/><path d="M623,136.16666666666666h14v1h-14Z" fill="white" opacity="0.7"/></g></g><path class="foreground" aria-hidden="true" d="" display="none"/></g></g></g></svg>