<svg xmlns="http://www.w3.org/2000/svg" xmlns:xlink="http://www.w3.org/1999/xlink" version="1.1" class="marks" width="234" height="362" viewBox="0 0 234 362"><rect width="234" height="362" fill="white"/><g fill="none" stroke-miterlimit="10" transform="translate(42,28)"><g class="mark-group role-frame root" role="graphics-object" aria-roledescription="group mark container"><g transform="translate(0,0)"><path class="background" aria-hidden="true" d="M0,0h0v0h0Z"/><g><g class="mark-group role-scope child__column_period_quarter_number_group" role="graphics-object" aria-roledescription="group mark container"><g transform="translate(0,0)"><path class="background" aria-hidden="true" d="M0.5,0.5h80v300h-80Z" stroke="#ddd"/><g><g class="mark-group role-axis" aria-hidden="true"><g transform="translate(0.5,0.5)"><path class="background" aria-hidden="true" d="M0,0h0v0h0Z" pointer-events="none"/><g><g class="mark-rule role-axis-grid" pointer-events="none"><line transform="translate(0,300)" x2="80" y2="0" stroke="#ddd" stroke-width="1" opacity="1"/><line transform="translate(0,273)" x2="80" y2="0" stroke="#ddd" stroke-width="1" opacity="1"/><line transform="translate(0,245)" x2="80" y2="0" stroke="#ddd" stroke-width="1" opacity="1"/><line transform="translate(0,218)" x2="80" y2="0" stroke="#ddd" stroke-width="1" opacity="1"/><line transform="translate(0,191)" x2="80" y2="0" stroke="#ddd" stroke-width="1" opacity="1"/><line transform="translate(0,164)" x2="80" y2="0" stroke="#ddd" stroke-width="1" opacity="1"/><line transform="translate(0,136)" x2="80" y2="0" stroke="#ddd" stroke-width="1" opacity="1"/><line transform="translate(0,109)" x2="80" y2="0" stroke="#ddd" stroke-width="1" opacity="1"/><line transform="translate(0,82)" x2="80" y2="0" stroke="#ddd" stroke-width="1" opacity="1"/><line transform="translate(0,55)" x2="80" y2="0" stroke="#ddd" stroke-width="1" opacity="1"/><line transform="translate(0,27)" x2="80" y2="0" stroke="#ddd" stroke-width="1" opacity="1"/><line transform="translate(0,0)" x2="80" y2="0" stroke="#ddd" stroke-width="1" opacity="1"/></g></g><path class="foreground" aria-hidden="true" d="" pointer-events="none" display="none"/></g></g><g class="mark-group role-axis" role="graphics-symbol" aria-roledescription="axis" aria-label="X-axis titled 'period_quarter_number' for a discrete scale with 4 values: 1, 2, 3, 4"><g transform="translate(0.5,300.5)"><path class="background" aria-hidden="true" d="M0,0h0v0h0Z" pointer-events="none"/><g><g class="mark-rule role-axis-tick" pointer-events="none"><line transform="translate(10,0)" x2="0" y2="5" stroke="#888" stroke-width="1" opacity="1"/><line transform="translate(30,0)" x2="0" y2="5" stroke="#888" stroke-width="1" opacity="1"/><line transform="translate(50,0)" x2="0" y2="5" stroke="#888" stroke-width="1" opacity="1"/><line transform="translate(70,0)" x2="0" y2="5" stroke="#888" stroke-width="1" opacity="1"/></g><g class="mark-text role-axis-label" pointer-events="none"><text text-anchor="end" transform="translate(10,7) rotate(270) translate(0,3)" font-family="sans-serif" font-size="10px" fill="#000" opacity="1">1</text><text text-anchor="end" transform="translate(30,7) rotate(270) translate(0,3)" font-family="sans-serif" font-size="10px" fill="#000" opacity="1">2</text><text text-anchor="end" transform="translate(50,7) rotate(270) translate(0,3)" font-family="sans-serif" font-size="10px" fill="#000" opacity="1">3</text><text text-anchor="end" transform="translate(70,7) rotate(270) translate(0,3)" font-family="sans-serif" font-size="10px" fill="#000" opacity="1">4</text></g><g class="mark-rule role-axis-domain" pointer-events="none"><line transform="translate(0,0)" x2="80" y2="0" stroke="#888" stroke-width="1" opacity="1"/></g><g class="mark-text role-axis-title" pointer-events="none"><text text-anchor="middle" transform="translate(40,25.5615234375)" font-family="sans-serif" font-size="11px" font-weight="bold" fill="#000" opacity="1">period_quarter_number</text></g></g><path class="foreground" aria-hidden="true" d="" pointer-events="none" display="none"/></g></g><g class="mark-group role-axis" role="graphics-symbol" aria-roledescription="axis" aria-label="Y-axis titled 'sick_leave_percentage' for a linear scale with values from 0 to 6"><g transform="translate(0.5,0.5)"><path class="background" aria-hidden="true" d="M0,0h0v0h0Z" pointer-events="none"/><g><g class="mark-rule role-axis-tick" pointer-events="none"><line transform="translate(0,300)" x2="-5" y2="0" stroke="#888" stroke-width="1" opacity="1"/><line transform="translate(0,273)" x2="-5" y2="0" stroke="#888" stroke-width="1" opacity="1"/><line transform="translate(0,245)" x2="-5" y2="0" stroke="#888" stroke-width="1" opacity="1"/><line transform="translate(0,218)" x2="-5" y2="0" stroke="#888" stroke-width="1" opacity="1"/><line transform="translate(0,191)" x2="-5" y2="0" stroke="#888" stroke-width="1" opacity="1"/><line transform="translate(0,164)" x2="-5" y2="0" stroke="#888" stroke-width="1" opacity="1"/><line transform="translate(0,136)" x2="-5" y2="0" stroke="#888" stroke-width="1" opacity="1"/><line transform="translate(0,109)" x2="-5" y2="0" stroke="#888" stroke-width="1" opacity="1"/><line transform="translate(0,82)" x2="-5" y2="0" stroke="#888" stroke-width="1" opacity="1"/><line transform="translate(0,55)" x2="-5" y2="0" stroke="#888" stroke-width="1" opacity="1"/><line transform="translate(0,27)" x2="-5" y2="0" stroke="#888" stroke-width="1" opacity="1"/><line transform="translate(0,0)" x2="-5" y2="0" stroke="#888" stroke-width="1" opacity="1"/></g><g class="mark-text role-axis-label" pointer-events="none"><text text-anchor="end" transform="translate(-7,303)" font-family="sans-serif" font-size="10px" fill="#000" opacity="1">0.0</text><text text-anchor="end" transform="translate(-7,275.7272727272727)" font-family="sans-serif" font-size="10px" fill="#000" opacity="1">0.5</text><text text-anchor="end" transform="translate(-7,248.45454545454544)" font-family="sans-serif" font-size="10px" fill="#000" opacity="1">1.0</text><text text-anchor="end" transform="translate(-7,221.1818181818182)" font-family="sans-serif" font-size="10px" fill="#000" opacity="1">1.5</text><text text-anchor="end" transform="translate(-7,193.9090909090909)" font-family="sans-serif" font-size="10px" fill="#000" opacity="1">2.0</text><text text-anchor="end" transform="translate(-7,166.63636363636363)" font-family="sans-serif" font-size="10px" fill="#000" opacity="1">2.5</text><text text-anchor="end" transform="translate(-7,139.36363636363637)" font-family="sans-serif" font-size="10px" fill="#000" opacity="1">3.0</text><text text-anchor="end" transform="translate(-7,112.0909090909091)" font-family="sans-serif" font-size="10px" fill="#000" opacity="1">3.5</text><text text-anchor="end" transform="translate(-7,84.81818181818181)" font-family="sans-serif" font-size="10px" fill="#000" opacity="1">4.0</text><text text-anchor="end" transform="translate(-7,57.54545454545453)" font-family="sans-serif" font-size="10px" fill="#000" opacity="1">4.5</text><text text-anchor="end" transform="translate(-7,30.27272727272728)" font-family="sans-serif" font-size="10px" fill="#000" opacity="1">5.0</text><text text-anchor="end" transform="translate(-7,3)" font-family="sans-serif" font-size="10px" fill="#000" opacity="1">5.5</text></g><g class="mark-rule role-axis-domain" pointer-events="none"><line transform="translate(0,300)" x2="0" y2="-300" stroke="#888" stroke-width="1" opacity="1"/></g><g class="mark-text role-axis-title" pointer-events="none"><text text-anchor="middle" transform="translate(-24.9013671875,150) rotate(-90) translate(0,-2)" font-family="sans-serif" font-size="11px" font-weight="bold" fill="#000" opacity="1">sick_leave_percentage</text></g></g><path class="foreground" aria-hidden="true" d="" pointer-events="none" display="none"/></g></g><g class="mark-symbol role-mark child__column_period_quarter_number_marks" role="graphics-object" aria-roledescription="symbol mark container"><path aria-label="period_quarter_number: 1; sick_leave_percentage: 4.5; period_year: 2013" role="graphics-symbol" aria-roledescription="point" transform="translate(10,54.54545454545453)" d="M2.739,0A2.739,2.739,0,1,1,-2.739,0A2.739,2.739,0,1,1,2.739,0" stroke="rgb(207, 225, 242)" stroke-width="2" opacity="0.7"/><path aria-label="period_quarter_number: 2; sick_leave_percentage: 3.8; period_year: 2013" role="graphics-symbol" aria-roledescription="point" transform="translate(30,92.72727272727272)" d="M2.739,0A2.739,2.739,0,1,1,-2.739,0A2.739,2.739,0,1,1,2.739,0" stroke="rgb(207, 225, 242)" stroke-width="2" opacity="0.7"/><path aria-label="period_quarter_number: 3; sick_leave_percentage: 3.5; period_year: 2013" role="graphics-symbol" aria-roledescription="point" transform="translate(50,109.0909090909091)" d="M2.739,0A2.739,2.739,0,1,1,-2.739,0A2.739,2.739,0,1,1,2.739,0" stroke="rgb(207, 225, 242)" stroke-width="2" opacity="0.7"/><path aria-label="period_quarter_number: 4; sick_leave_percentage: 3.9; period_year: 2013" role="graphics-symbol" aria-roledescription="point" transform="translate(70,87.27272727272727)" d="M2.739,0A2.739,2.739,0,1,1,-2.739,0A2.739,2.739,0,1,1,2.739,0" stroke="rgb(207, 225, 242)" stroke-width="2" opacity="0.7"/><path aria-label="period_quarter_number: 1; sick_leave_percentage: 4; period_year: 2014" role="graphics-symbol" aria-roledescription="point" transform="translate(10,81.81818181818181)" d="M2.739,0A2.739,2.739,0,1,1,-2.739,0A2.739,2.739,0,1,1,2.739,0" stroke="rgb(181, 212, 233)" stroke-width="2" opacity="0.7"/><path aria-label="period_quarter_number: 2; sick_leave_percentage: 3.7; period_year: 2014" role="graphics-symbol" aria-roledescription="point" transform="translate(30,98.18181818181819)" d="M2.739,0A2.739,2.739,0,1,1,-2.739,0A2.739,2.739,0,1,1,2.739,0" stroke="rgb(181, 212, 233)" stroke-width="2" opacity="0.7"/><path aria-label="period_quarter_number: 3; sick_leave_percentage: 3.5; period_year: 2014" role="graphics-symbol" aria-roledescription="point" transform="translate(50,109.0909090909091)" d="M2.739,0A2.739,2.739,0,1,1,-2.739,0A2.739,2.739,0,1,1,2.739,0" stroke="rgb(181, 212, 233)" stroke-width="2" opacity="0.7"/><path aria-label="period_quarter_number: 4; sick_leave_percentage: 4; period_year: 2014" role="graphics-symbol" aria-roledescription="point" transform="translate(70,81.81818181818181)" d="M2.739,0A2.739,2.739,0,1,1,-2.739,0A2.739,2.739,0,1,1,2.739,0" stroke="rgb(181, 212, 233)" stroke-width="2" opacity="0.7"/><path aria-label="period_quarter_number: 1; sick_leave_percentage: 4.4; period_year: 2015" role="graphics-symbol" aria-roledescription="point" transform="translate(10,59.999999999999986)" d="M2.739,0A2.739,2.739,0,1,1,-2.739,0A2.739,2.739,0,1,1,2.739,0" stroke="rgb(147, 195, 223)" stroke-width="2" opacity="0.7"/><path aria-label="period_quarter_number: 2; sick_leave_percentage: 3.7; period_year: 2015" role="graphics-symbol" aria-roledescription="point" transform="translate(30,98.18181818181819)" d="M2.739,0A2.739,2.739,0,1,1,-2.739,0A2.739,2.739,0,1,1,2.739,0" stroke="rgb(147, 195, 223)" stroke-width="2" opacity="0.7"/><path aria-label="period_quarter_number: 3; sick_leave_percentage: 3.5; period_year: 2015" role="graphics-symbol" aria-roledescription="point" transform="translate(50,109.0909090909091)" d="M2.739,0A2.739,2.739,0,1,1,-2.739,0A2.739,2.739,0,1,1,2.739,0" stroke="rgb(147, 195, 223)" stroke-width="2" opacity="0.7"/><path aria-label="period_quarter_number: 4; sick_leave_percentage: 3.9; period_year: 2015" role="graphics-symbol" aria-roledescription="point" transform="translate(70,87.27272727272727)" d="M2.739,0A2.739,2.739,0,1,1,-2.739,0A2.739,2.739,0,1,1,2.739,0" stroke="rgb(147, 195, 223)" stroke-width="2" opacity="0.7"/><path aria-label="period_quarter_number: 1; sick_leave_percentage: 4.3; period_year: 2016" role="graphics-symbol" aria-roledescription="point" transform="translate(10,65.45454545454548)" d="M2.739,0A2.739,2.739,0,1,1,-2.739,0A2.739,2.739,0,1,1,2.739,0" stroke="rgb(109, 174, 213)" stroke-width="2" opacity="0.7"/><path aria-label="period_quarter_number: 2; sick_leave_percentage: 3.8; period_year: 2016" role="graphics-symbol" aria-roledescription="point" transform="translate(30,92.72727272727272)" d="M2.739,0A2.739,2.739,0,1,1,-2.739,0A2.739,2.739,0,1,1,2.739,0" stroke="rgb(109, 174, 213)" stroke-width="2" opacity="0.7"/><path aria-label="period_quarter_number: 3; sick_leave_percentage: 3.5; period_year: 2016" role="graphics-symbol" aria-roledescription="point" transform="translate(50,109.0909090909091)" d="M2.739,0A2.739,2.739,0,1,1,-2.739,0A2.739,2.739,0,1,1,2.739,0" stroke="rgb(109, 174, 213)" stroke-width="2" opacity="0.7"/><path aria-label="period_quarter_number: 4; sick_leave_percentage: 4.1; period_year: 2016" role="graphics-symbol" aria-roledescription="point" transform="translate(70,76.36363636363639)" d="M2.739,0A2.739,2.739,0,1,1,-2.739,0A2.739,2.739,0,1,1,2.739,0" stroke="rgb(109, 174, 213)" stroke-width="2" opacity="0.7"/><path aria-label="period_quarter_number: 1; sick_leave_percentage: 4.3; period_year: 2017" role="graphics-symbol" aria-roledescription="point" transform="translate(10,65.45454545454548)" d="M2.739,0A2.739,2.739,0,1,1,-2.739,0A2.739,2.739,0,1,1,2.739,0" stroke="rgb(75, 151, 201)" stroke-width="2" opacity="0.7"/><path aria-label="period_quarter_number: 2; sick_leave_percentage: 3.9; period_year: 2017" role="graphics-symbol" aria-roledescription="point" transform="translate(30,87.27272727272727)" d="M2.739,0A2.739,2.739,0,1,1,-2.739,0A2.739,2.739,0,1,1,2.739,0" stroke="rgb(75, 151, 201)" stroke-width="2" opacity="0.7"/><path aria-label="period_quarter_number: 3; sick_leave_percentage: 3.7; period_year: 2017" role="graphics-symbol" aria-roledescription="point" transform="translate(50,98.18181818181819)" d="M2.739,0A2.739,2.739,0,1,1,-2.739,0A2.739,2.739,0,1,1,2.739,0" stroke="rgb(75, 151, 201)" stroke-width="2" opacity="0.7"/><path aria-label="period_quarter_number: 4; sick_leave_percentage: 4.2; period_year: 2017" role="graphics-symbol" aria-roledescription="point" transform="translate(70,70.9090909090909)" d="M2.739,0A2.739,2.739,0,1,1,-2.739,0A2.739,2.739,0,1,1,2.739,0" stroke="rgb(75, 151, 201)" stroke-width="2" opacity="0.7"/><path aria-label="period_quarter_number: 1; sick_leave_percentage: 4.9; period_year: 2018" role="graphics-symbol" aria-roledescription="point" transform="translate(10,32.727272727272705)" d="M2.739,0A2.739,2.739,0,1,1,-2.739,0A2.739,2.739,0,1,1,2.739,0" stroke="rgb(47, 126, 187)" stroke-width="2" opacity="0.7"/><path aria-label="period_quarter_number: 2; sick_leave_percentage: 4.1; period_year: 2018" role="graphics-symbol" aria-roledescription="point" transform="translate(30,76.36363636363639)" d="M2.739,0A2.739,2.739,0,1,1,-2.739,0A2.739,2.739,0,1,1,2.739,0" stroke="rgb(47, 126, 187)" stroke-width="2" opacity="0.7"/><path aria-label="period_quarter_number: 3; sick_leave_percentage: 3.9; period_year: 2018" role="graphics-symbol" aria-roledescription="point" transform="translate(50,87.27272727272727)" d="M2.739,0A2.739,2.739,0,1,1,-2.739,0A2.739,2.739,0,1,1,2.739,0" stroke="rgb(47, 126, 187)" stroke-width="2" opacity="0.7"/><path aria-label="period_quarter_number: 4; sick_leave_percentage: 4.3; period_year: 2018" role="graphics-symbol" aria-roledescription="point" transform="translate(70,65.45454545454548)" d="M2.739,0A2.739,2.739,0,1,1,-2.739,0A2.739,2.739,0,1,1,2.739,0" stroke="rgb(47, 126, 187)" stroke-width="2" opacity="0.7"/><path aria-label="period_quarter_number: 1; sick_leave_percentage: 4.7; period_year: 2019" role="graphics-symbol" aria-roledescription="point" transform="translate(10,43.63636363636362)" d="M2.739,0A2.739,2.739,0,1,1,-2.739,0A2.739,2.739,0,1,1,2.739,0" stroke="rgb(24, 100, 170)" stroke-width="2" opacity="0.7"/><path aria-label="period_quarter_number: 2; sick_leave_percentage: 4.3; period_year: 2019" role="graphics-symbol" aria-roledescription="point" transform="translate(30,65.45454545454548)" d="M2.739,0A2.739,2.739,0,1,1,-2.739,0A2.739,2.739,0,1,1,2.739,0" stroke="rgb(24, 100, 170)" stroke-width="2" opacity="0.7"/><path aria-label="period_quarter_number: 3; sick_leave_percentage: 4; period_year: 2019" role="graphics-symbol" aria-roledescription="point" transform="translate(50,81.81818181818181)" d="M2.739,0A2.739,2.739,0,1,1,-2.739,0A2.739,2.739,0,1,1,2.739,0" stroke="rgb(24, 100, 170)" stroke-width="2" opacity="0.7"/><path aria-label="period_quarter_number: 4; sick_leave_percentage: 4.5; period_year: 2019" role="graphics-symbol" aria-roledescription="point" transform="translate(70,54.54545454545453)" d="M2.739,0A2.739,2.739,0,1,1,-2.739,0A2.739,2.739,0,1,1,2.739,0" stroke="rgb(24, 100, 170)" stroke-width="2" opacity="0.7"/><path aria-label="period_quarter_number: 1; sick_leave_percentage: 5.2; period_year: 2020" role="graphics-symbol" aria-roledescription="point" transform="translate(10,16.36363636363637)" d="M2.739,0A2.739,2.739,0,1,1,-2.739,0A2.739,2.739,0,1,1,2.739,0" stroke="rgb(10, 74, 144)" stroke-width="2" opacity="0.7"/><path aria-label="period_quarter_number: 2; sick_leave_percentage: 4.5; period_year: 2020" role="graphics-symbol" aria-roledescription="point" transform="translate(30,54.54545454545453)" d="M2.739,0A2.739,2.739,0,1,1,-2.739,0A2.739,2.739,0,1,1,2.739,0" stroke="rgb(10, 74, 144)" stroke-width="2" opacity="0.7"/><path aria-label="period_quarter_number: 3; sick_leave_percentage: 4.4; period_year: 2020" role="graphics-symbol" aria-roledescription="point" transform="translate(50,59.999999999999986)" d="M2.739,0A2.739,2.739,0,1,1,-2.739,0A2.739,2.739,0,1,1,2.739,0" stroke="rgb(10, 74, 144)" stroke-width="2" opacity="0.7"/><path aria-label="period_quarter_number: 4; sick_leave_percentage: 4.9; period_year: 2020" role="graphics-symbol" aria-roledescription="point" transform="translate(70,32.727272727272705)" d="M2.739,0A2.739,2.739,0,1,1,-2.739,0A2.739,2.739,0,1,1,2.739,0" stroke="rgb(10, 74, 144)" stroke-width="2" opacity="0.7"/></g></g><path class="foreground" aria-hidden="true" d="" display="none"/></g></g><g class="mark-group role-legend" role="graphics-symbol" aria-roledescription="legend" aria-label="Gradient legend titled 'period_year' for stroke color with values from 2,013 to 2,020"><g transform="translate(122,0)"><path class="background" aria-hidden="true" d="M0,0h63v216h-63Z" pointer-events="none"/><g><g class="mark-group role-legend-entry"><g transform="translate(0,16)"><path class="background" aria-hidden="true" d="M0,0h0v0h0Z" pointer-events="none"/><g><g class="mark-rect role-legend-gradient" pointer-events="none"><path d="M0,0h16v200h-16Z" fill="url(#gradient_138)" stroke="#ddd" stroke-width="0" opacity="0.7"/></g><g class="mark-text role-legend-label" pointer-events="none"><text text-anchor="start" transform="translate(18,174.42857142857144)" font-family="sans-serif" font-size="10px" fill="#000" opacity="1">2,014</text><text text-anchor="start" transform="translate(18,117.28571428571428)" font-family="sans-serif" font-size="10px" fill="#000" opacity="1">2,016</text><text text-anchor="start" transform="translate(18,60.14285714285714)" font-family="sans-serif" font-size="10px" fill="#000" opacity="1">2,018</text><text text-anchor="start" transform="translate(18,8)" font-family="sans-serif" font-size="10px" fill="#000" opacity="1">2,020</text></g></g><path class="foreground" aria-hidden="true" d="" pointer-events="none" display="none"/></g></g><g class="mark-text role-legend-title" pointer-events="none"><text text-anchor="start" transform="translate(0,9)" font-family="sans-serif" font-size="11px" font-weight="bold" fill="#000" opacity="1">period_year</text></g></g><path class="foreground" aria-hidden="true" d="" pointer-events="none" display="none"/></g></g><g class="mark-group role-title"><g transform="translate(-36.9013671875,-23)"><path class="background" aria-hidden="true" d="M0,0h0v0h0Z" pointer-events="none"/><g><g class="mark-text role-title-text" role="graphics-symbol" aria-roledescription="title" aria-label="Title text 'Seasonality of T001081 sick leave %'" pointer-events="none"><text text-anchor="start" transform="translate(0,10)" font-family="sans-serif" font-size="13px" font-weight="bold" fill="#000" opacity="1">Seasonality of T001081 sick leave %</text></g></g><path class="foreground" aria-hidden="true" d="" pointer-events="none" display="none"/></g></g></g><path class="foreground" aria-hidden="true" d="" display="none"/></g></g></g><defs><linearGradient id="gradient_138" x1="0" x2="0" y1="1" y2="0"><stop offset="0" stop-color="rgb(207, 225, 242)"/><stop offset="0.07142857142857142" stop-color="rgb(195, 219, 238)"/><stop offset="0.14285714285714285" stop-color="rgb(181, 212, 233)"/><stop offset="0.21428571428571427" stop-color="rgb(164, 204, 228)"/><stop offset="0.2857142857142857" stop-color="rgb(147, 195, 223)"/><stop offset="0.35714285714285715" stop-color="rgb(128, 184, 218)"/><stop offset="0.42857142857142855" stop-color="rgb(109, 174, 213)"/><stop offset="0.5" stop-color="rgb(91, 163, 207)"/><stop offset="0.5714285714285714" stop-color="rgb(75, 151, 201)"/><stop offset="0.6428571428571429" stop-color="rgb(60, 139, 194)"/><stop offset="0.7142857142857143" stop-color="rgb(47, 126, 187)"/><stop offset="0.7857142857142857" stop-color="rgb(34, 114, 180)"/><stop offset="0.8571428571428571" stop-color="rgb(24, 100, 170)"/><stop offset="0.9285714285714286" stop-color="rgb(16, 87, 158)"/><stop offset="1" stop-color="rgb(10, 74, 144)"/></linearGradient></defs></svg>